PathFileType	4	(X/Y/Z)	C:/Users/opensim2020/Desktop/walking_exp_matlab/subject06_walking15_straight_04.trc	
DataRate	CameraRate	NumFrames	NumMarkers	Units	OrigDataRate	OrigDataStartFrame	OrigNumFrames	
100.00	100.00	5	47	mm	100.00	2960	157	
Frame#	Time	LFHD			RFHD			LBHD			RBHD			C7			T10			CLAV			STRN			RBAK			LSHO			LUPA			LELB			LFRM			LWRA			LWRB			LFIN			RSHO			RUPA			RELB			RFRM			RWRA			RWRB			RFIN			LASI			RASI			LPSI			RPSI			LTHI			LKNE			LTIB			LANK			LHEE			LTOE			RTHI			RKNE			RTIB			RANK			RHEE			RTOE			*39			*40			*41			*42			*43			*44			*45			*46			
		X1	Y1	Z1	X2	Y2	Z2	X3	Y3	Z3	X4	Y4	Z4	X5	Y5	Z5	X6	Y6	Z6	X7	Y7	Z7	X8	Y8	Z8	X9	Y9	Z9	X10	Y10	Z10	X11	Y11	Z11	X12	Y12	Z12	X13	Y13	Z13	X14	Y14	Z14	X15	Y15	Z15	X16	Y16	Z16	X17	Y17	Z17	X18	Y18	Z18	X19	Y19	Z19	X20	Y20	Z20	X21	Y21	Z21	X22	Y22	Z22	X23	Y23	Z23	X24	Y24	Z24	X25	Y25	Z25	X26	Y26	Z26	X27	Y27	Z27	X28	Y28	Z28	X29	Y29	Z29	X30	Y30	Z30	X31	Y31	Z31	X32	Y32	Z32	X33	Y33	Z33	X34	Y34	Z34	X35	Y35	Z35	X36	Y36	Z36	X37	Y37	Z37	X38	Y38	Z38	X39	Y39	Z39	X40	Y40	Z40	X41	Y41	Z41	X42	Y42	Z42	X43	Y43	Z43	X44	Y44	Z44	X45	Y45	Z45	X46	Y46	Z46	X47	Y47	Z47	

99	0.980	-911.11615	-35.81170	1656.26855	-1041.88416	-56.67460	1652.77893	-935.06396	97.09554	1606.04651	-1063.33081	74.53696	1607.68530	-989.56061	91.81731	1449.37915	-997.85254	123.14862	1119.02551	-986.44348	-18.75565	1372.33606	-984.18604	-58.91600	1199.66406	-1069.96045	164.35187	1279.46057	-825.99658	43.19915	1402.13452	-755.73798	71.59981	1201.30249	-746.13739	93.60889	1090.29333	-722.59454	84.84600	940.65759	-760.25244	32.23075	820.99402	-726.16711	95.65172	821.90723	-723.80945	62.52744	737.08514	-1148.95654	24.25429	1404.91492	-1243.04736	63.89501	1210.63940	-1258.59937	50.95598	1089.91443	-1270.65186	6.54417	979.13672	-1224.72327	-86.92374	866.37317	-1270.70239	-40.73671	850.91724	-1264.27710	-98.05451	789.50055	-895.94098	-64.69556	968.19940	-1114.76685	-50.56407	966.35266	-914.13794	94.92292	990.17865	-1081.14917	99.31127	984.78094	-834.11377	-25.46752	650.38574	-862.39197	-45.68798	488.93567	-877.07135	-11.36104	232.58397	-927.91168	-3.93818	63.91058	-973.96442	36.03742	51.69412	-928.91803	-149.34314	34.34197	-1177.19275	-20.42328	626.27252	-1168.36853	-46.59231	501.47769	-1156.90735	140.97137	333.04761	-1109.24329	289.21011	224.29428	-1060.07129	326.93588	238.03705	-1117.62585	233.67596	77.61769	-983.39746	52.65916	1701.18665																					 
100	0.990	-911.07690	-46.67173	1657.33142	-1041.80505	-67.23981	1653.61829	-934.90778	86.09075	1607.07581	-1062.90015	64.15367	1608.49646	-988.64490	81.34879	1450.44775	-996.85632	113.05740	1120.19775	-985.96484	-29.01774	1373.21497	-983.39227	-69.04149	1200.51514	-1068.78711	154.26118	1280.66003	-825.44366	31.70922	1403.18835	-754.04712	56.44679	1201.91602	-743.93286	76.65134	1090.62744	-720.15088	64.80933	941.12073	-758.97827	10.03043	822.77344	-723.57129	72.85315	822.27679	-721.22406	37.33415	738.42755	-1148.36743	14.42486	1405.73499	-1241.46436	55.52892	1211.26282	-1256.87756	43.32804	1090.32800	-1269.52209	1.84980	978.20001	-1224.98364	-88.45820	862.26117	-1270.67383	-41.13413	848.46387	-1265.17761	-96.97057	785.41510	-894.42645	-74.36578	968.83167	-1113.59412	-61.09118	967.84979	-913.55975	85.22275	990.90674	-1080.58923	88.97173	986.01526	-834.23535	-31.73812	650.54401	-862.15326	-49.61031	488.67728	-877.15546	-11.65348	232.89171	-928.17975	-4.06802	64.05386	-974.37396	36.15165	52.16436	-928.89252	-149.41924	34.25114	-1176.85974	-36.56571	628.66351	-1167.57715	-65.33445	504.50827	-1156.45703	119.87016	332.97064	-1109.24976	265.80472	220.56023	-1060.20874	304.70868	232.41235	-1118.75586	203.39131	77.59625	-983.19843	41.95174	1702.17786																					 
101	1.000	-910.98547	-57.49133	1658.29102	-1041.83716	-77.78114	1654.29614	-934.46088	75.36256	1608.12549	-1062.63269	53.66991	1609.30908	-987.89032	70.87559	1451.48914	-995.82343	103.03718	1121.28845	-985.47278	-39.39072	1374.05017	-982.62732	-78.99818	1201.27136	-1067.80652	144.31110	1281.79626	-824.77295	20.46539	1404.18811	-752.64868	41.73941	1202.52808	-741.87469	59.59377	1090.95032	-717.95685	44.36990	942.02771	-757.39325	-12.08558	824.70874	-721.11584	49.91604	822.75653	-718.71979	11.99416	740.14111	-1147.80591	4.54153	1406.50549	-1240.10107	46.94590	1211.89209	-1255.12878	35.86856	1090.68713	-1268.36548	-2.65824	977.30884	-1225.28894	-89.69747	858.26001	-1270.72266	-41.51262	846.22382	-1266.20471	-95.36656	781.55164	-892.95294	-83.77522	969.36682	-1112.46606	-71.66323	969.31586	-912.97168	75.64085	991.50049	-1080.12463	78.60561	987.23651	-834.13446	-38.43508	650.62494	-861.95795	-53.28381	488.38049	-877.24359	-12.12677	233.15520	-928.42834	-4.22759	64.22705	-974.51532	35.77924	52.30277	-928.87140	-149.45277	34.17184	-1176.46118	-52.40989	630.98920	-1166.59888	-83.31339	507.50089	-1155.94458	98.64864	332.22104	-1109.24756	241.80197	215.66083	-1060.34460	281.86658	225.43959	-1119.62732	172.44829	76.70319	-983.05560	31.17001	1703.10461																					 
102	1.010	-911.04956	-68.41328	1659.05884	-1041.90393	-88.35306	1654.80054	-934.21912	64.63131	1609.11304	-1062.16736	43.15590	1610.09241	-987.11981	60.57009	1452.28210	-995.00189	93.18782	1122.33118	-984.96814	-49.66608	1374.76538	-981.76398	-89.06026	1201.92334	-1066.92224	134.26685	1282.81787	-824.21149	9.44125	1405.13599	-751.38367	27.17046	1203.19690	-739.89777	42.85213	1091.33875	-716.26819	23.87208	942.67004	-756.12207	-34.01652	826.65564	-718.59979	26.64030	823.51892	-716.38483	-13.44066	742.11456	-1147.22559	-5.37455	1407.15894	-1238.97339	38.44492	1212.59180	-1253.47498	28.56622	1091.01257	-1267.28015	-6.99954	976.50476	-1225.66711	-90.77371	854.41589	-1270.64404	-41.72131	844.19641	-1267.23853	-93.53741	777.91364	-891.50439	-93.16722	969.71277	-1111.38647	-82.17441	970.72754	-912.44855	66.12193	991.99292	-1079.62488	68.35469	988.46692	-834.51825	-43.75278	650.48315	-861.65558	-56.84831	488.08698	-877.19421	-13.20428	233.32002	-928.56073	-4.32017	64.49286	-976.51495	32.87241	50.49439	-928.82599	-149.52951	34.09089	-1175.94751	-67.96006	633.14667	-1165.47791	-100.82044	510.36557	-1155.36462	77.21877	330.65274	-1109.25769	217.10480	209.71777	-1060.31812	258.10333	217.19815	-1120.67212	140.78381	75.03404	-983.00299	20.39950	1703.92041																					 
103	1.020	-911.07568	-79.18155	1659.71497	-1041.95337	-98.84754	1655.16919	-933.54108	54.11939	1610.04236	-1061.90039	32.80088	1610.60950	-986.52051	50.29546	1453.02551	-994.01416	83.23568	1123.08191	-984.45825	-59.87988	1375.32190	-980.90167	-98.86895	1202.40894	-1066.08850	124.32797	1283.67590	-823.80133	-1.45733	1405.98743	-750.18628	12.78775	1203.89722	-737.97858	26.09247	1091.76160	-714.12732	3.70796	943.54590	-754.94623	-56.85469	828.95959	-716.34460	3.27952	824.56409	-714.05737	-38.96278	744.41748	-1146.68872	-15.36306	1407.64209	-1237.29907	29.84153	1212.85388	-1251.90100	21.25017	1091.21960	-1266.25293	-11.19667	975.63507	-1226.11255	-91.66124	850.68414	-1270.57739	-41.81869	842.24512	-1268.34851	-91.45490	774.40430	-890.16382	-102.48502	969.93500	-1110.40454	-92.50682	972.00018	-912.12512	56.83504	992.56958	-1079.29321	58.00980	989.55048	-834.29376	-50.06648	650.43518	-861.35455	-60.56464	487.87756	-877.04236	-14.90187	233.52934	-928.48425	-4.53184	64.75350	-974.65118	35.69474	52.99717	-928.70605	-149.53851	34.09966	-1175.69824	-83.07403	635.32507	-1164.36841	-117.91698	513.10498	-1154.87988	55.68550	328.33984	-1109.21497	191.78195	202.81706	-1060.14111	233.45155	207.90393	-1121.71875	108.61697	72.89671	-982.94165	9.68823	1704.61731																					 
